<?xml version="1.0" standalone="no"?>
<!DOCTYPE svg PUBLIC "-//W3C//DTD SVG 20010904//EN"
 "http://www.w3.org/TR/2001/REC-SVG-20010904/DTD/svg10.dtd">
<svg version="1.0" xmlns="http://www.w3.org/2000/svg"
 width="180.000000pt" height="180.000000pt" viewBox="0 0 180.000000 180.000000"
 preserveAspectRatio="xMidYMid meet">
<metadata>
Created by potrace 1.14, written by Peter Selinger 2001-2017
</metadata>
<g transform="translate(0.000000,180.000000) scale(0.100000,-0.100000)"
fill="#000000" stroke="none">
<path d="M854 1782 c-102 -92 -175 -142 -209 -142 -9 0 -14 -4 -11 -9 4 -5 20
-7 36 -5 17 3 30 1 30 -4 0 -5 -29 -37 -65 -71 -36 -35 -65 -65 -65 -67 0 -10
20 -2 54 21 20 13 36 23 36 21 0 -16 -34 -94 -48 -110 -9 -11 -11 -16 -4 -12
15 9 15 6 -4 -40 l-15 -39 34 40 35 39 0 -54 c-2 -100 1 -120 17 -120 8 0 15
-8 16 -17 0 -10 2 -42 4 -70 l2 -53 -91 -2 c-50 0 -95 -2 -101 -3 -5 -2 -14
-4 -20 -5 -5 -1 -13 -2 -17 -1 -24 3 -116 -54 -118 -73 0 -1 -11 -32 -24 -71
-21 -63 -26 -70 -54 -75 -21 -4 -48 -25 -91 -72 -34 -36 -61 -69 -61 -73 0 -3
-27 -31 -60 -62 l-60 -55 0 -299 0 -299 795 0 c437 0 795 3 795 8 0 4 -11 17
-25 30 -13 13 -27 39 -31 58 -4 22 -17 42 -35 55 -16 11 -43 47 -59 78 -16 32
-45 79 -64 104 -20 26 -36 56 -36 68 0 11 -11 32 -25 47 -15 16 -25 39 -25 57
0 18 -15 56 -33 87 -50 83 -51 84 -8 97 34 10 101 65 133 110 7 9 48 43 90 74
l77 56 8 -26 c5 -15 6 -50 1 -77 -10 -64 -4 -69 13 -12 11 38 15 43 23 28 11
-19 13 -23 15 -49 1 -15 3 -16 10 -3 6 8 8 17 6 21 -3 3 4 15 13 25 10 10 22
42 29 69 6 28 18 68 27 90 l16 40 -2 -57 c-3 -60 6 -70 15 -16 3 18 8 44 11
58 4 14 9 47 12 75 3 27 8 52 10 55 9 8 2 -162 -7 -194 -5 -16 -7 -32 -4 -34
11 -12 26 93 27 189 0 60 5 106 9 103 11 -7 11 -1 0 29 -5 13 -12 41 -15 63
l-6 39 20 -24 c26 -31 25 -14 -4 61 -14 35 -30 83 -36 108 -21 83 -71 169
-133 226 -32 30 -64 54 -71 54 -8 0 -19 7 -26 15 -11 13 -59 15 -324 15 -284
0 -314 -2 -332 -18z"/>
</g>
</svg>
