<?xml version="1.0" standalone="no"?>
<!DOCTYPE svg PUBLIC "-//W3C//DTD SVG 20010904//EN"
 "http://www.w3.org/TR/2001/REC-SVG-20010904/DTD/svg10.dtd">
<svg version="1.0" xmlns="http://www.w3.org/2000/svg"
 width="1024.000000pt" height="1024.000000pt" viewBox="0 0 1024.000000 1024.000000"
 preserveAspectRatio="xMidYMid meet">
<metadata>
Created by potrace 1.14, written by Peter Selinger 2001-2017
</metadata>
<g transform="translate(0.000000,1024.000000) scale(0.100000,-0.100000)"
fill="#000000" stroke="none">
<path d="M4790 10229 c-41 -3 -115 -10 -165 -14 -49 -4 -92 -8 -95 -10 -3 -2
-34 -6 -70 -10 -245 -25 -606 -106 -905 -202 -767 -248 -1446 -658 -2014
-1216 -124 -123 -184 -187 -332 -353 -15 -18 -76 -94 -135 -170 -453 -582
-781 -1276 -944 -1995 -32 -141 -76 -382 -86 -474 -3 -33 -8 -67 -9 -75 -2 -8
-6 -51 -10 -95 -3 -44 -9 -96 -12 -115 -8 -58 -10 -587 -2 -700 14 -195 42
-445 54 -490 2 -8 6 -33 10 -55 26 -179 116 -538 190 -759 322 -957 921 -1801
1720 -2422 655 -509 1451 -860 2270 -999 152 -26 157 -27 355 -49 249 -29 794
-26 1060 4 47 6 108 13 135 16 109 12 430 75 579 114 1559 401 2819 1487 3454
2976 132 309 278 797 316 1059 4 22 13 76 20 120 13 70 25 161 40 297 29 256
27 834 -4 1058 -5 36 -11 90 -15 120 -3 30 -17 120 -31 198 -217 1248 -865
2340 -1865 3144 -169 135 -437 317 -646 437 -77 44 -426 221 -436 221 -4 0
-37 14 -74 31 -417 192 -1030 349 -1533 394 -36 3 -85 9 -110 12 -65 8 -622
10 -710 2z"/>
</g>
</svg>
